<?xml version="1.0" encoding="UTF-8"?>
<!DOCTYPE svg PUBLIC "-//W3C//DTD SVG 1.1//EN" "http://www.w3.org/Graphics/SVG/1.1/DTD/svg11.dtd">
<!-- Creator: CorelDRAW 2021 (64 Bit) -->
<svg xmlns="http://www.w3.org/2000/svg" xml:space="preserve" width="3257px" height="1335px" version="1.1" style="shape-rendering:geometricPrecision; text-rendering:geometricPrecision; image-rendering:optimizeQuality; fill-rule:evenodd; clip-rule:evenodd"
viewBox="0 0 3256.87 1335.14"
 xmlns:xlink="http://www.w3.org/1999/xlink"
 xmlns:xodm="http://www.corel.com/coreldraw/odm/2003">
 <defs>
  <style type="text/css">
   <![CDATA[
    .fil0 {fill:black;fill-rule:nonzero}
    .fil3 {fill:#010002;fill-rule:nonzero}
    .fil4 {fill:#06417E;fill-rule:nonzero}
    .fil2 {fill:#0D4485;fill-rule:nonzero}
    .fil1 {fill:white;fill-rule:nonzero}
   ]]>
  </style>
 </defs>
 <g id="Camada_x0020_1">
  <metadata id="CorelCorpID_0Corel-Layer"/>
  <g id="_2025135851712">
   <path id="XMLID_683_" class="fil0" d="M428.47 214.23c141.55,0 258.87,36.99 354.51,112.22l0 635.06c0,121.14 -36.99,214.23 -110.95,277.99 -73.96,63.76 -170.87,95.64 -292.02,95.64 -165.78,0 -292.02,-48.46 -378.74,-144.1 5.11,-31.88 19.13,-62.48 43.36,-90.54 22.95,-28.05 52.29,-48.46 87.99,-61.21 61.21,70.14 140.27,104.57 234.64,104.57 116.04,0 174.7,-45.91 174.7,-139l0 -26.78c-39.53,11.48 -82.89,17.86 -130.07,17.86 -118.59,0 -216.78,-33.16 -294.57,-98.2 -77.79,-66.31 -117.32,-158.12 -117.32,-276.72 0,-124.96 40.81,-224.43 123.7,-297.12 81.61,-72.68 183.63,-109.67 304.77,-109.67zm5.1 587.87c39.53,0 76.51,-6.37 108.39,-19.13l0 -343.02c-36.98,-14.03 -72.69,-21.68 -108.39,-21.68 -54.84,0 -100.74,17.85 -136.45,52.28 -36.98,34.43 -54.83,81.61 -54.83,140.27 0,58.66 17.85,104.57 52.28,139 35.71,34.43 81.62,52.28 139,52.28z"/>
   <path id="XMLID_681_" class="fil0" d="M1220.37 216.78c71.41,0 130.07,7.66 177.25,22.96 -2.55,84.16 -24.23,153.02 -67.58,207.86 -26.78,-7.65 -57.39,-11.48 -91.82,-11.48 -48.45,0 -87.99,7.65 -117.31,22.95l0 549.62c-39.54,6.37 -79.07,8.92 -121.15,8.92 -39.53,0 -80.34,-2.55 -119.87,-8.92l0 -674.59c33.16,-30.6 79.06,-57.38 139,-81.61 58.66,-24.23 126.25,-35.71 201.48,-35.71z"/>
   <path id="XMLID_678_" class="fil0" d="M1791.66 220.61c117.32,0 209.14,26.78 276.72,81.61 66.31,53.56 100.75,139 100.75,255.04l0 402.97c-123.7,51.01 -253.77,75.24 -387.67,75.24 -110.94,0 -196.38,-21.68 -257.59,-63.76 -59.93,-42.08 -90.54,-105.85 -90.54,-188.73 0,-79.06 30.61,-139 91.81,-181.08 61.22,-42.08 141.55,-62.49 243.57,-61.21 65.04,2.55 118.59,10.2 161.95,22.95l0 -31.88c0,-75.24 -52.28,-113.49 -158.12,-113.49 -81.62,0 -150.48,21.68 -207.86,66.31 -58.66,-31.88 -93.09,-82.89 -103.3,-153.03 30.61,-26.78 73.97,-52.28 133.9,-75.24 56.11,-24.22 122.42,-35.7 196.38,-35.7zm-118.59 552.16c0,29.33 11.48,52.29 35.7,68.87 24.23,16.57 58.66,25.5 103.3,25.5 36.98,0 75.23,-6.38 117.31,-17.85l0 -140.28c-40.8,-11.47 -85.43,-17.85 -132.62,-17.85 -82.88,-1.27 -123.69,26.78 -123.69,81.61z"/>
   <path id="XMLID_676_" class="fil0" d="M3018.41 524.11l0 423.37c-104.57,59.93 -232.09,89.26 -382.56,89.26 -246.12,0 -368.54,-103.29 -368.54,-311.15l0 -483.3c31.89,-6.38 72.69,-8.93 121.15,-8.93 48.46,0 87.99,2.55 119.87,8.93l0 428.47c0,54.83 10.2,94.36 31.88,118.59 20.4,24.23 59.93,36.98 116.04,36.98 47.19,0 87.99,-7.65 121.15,-24.23l0 -414.44c58.66,90.54 140.27,132.62 241.01,136.45z"/>
   <path id="XMLID_562_" class="fil1" d="M3019.69 441.22c-113.5,0 -205.31,-91.81 -205.31,-205.31 0,-113.49 91.81,-205.31 205.31,-205.31 113.49,0 205.3,91.82 205.3,205.31 0,113.5 -91.81,205.31 -205.3,205.31z"/>
   <g>
    <path id="XMLID_559_" class="fil2" d="M3019.69 63.76c95.64,0 173.42,77.79 173.42,173.43 0,95.64 -77.79,173.43 -173.42,173.43 -95.65,0 -173.43,-77.79 -173.43,-173.43 0,-95.64 77.79,-173.43 173.43,-173.43l0 0zm0 -63.76c-131.35,0 -237.19,105.84 -237.19,237.19 0,131.35 105.84,237.19 237.19,237.19 131.34,0 237.18,-107.12 237.18,-238.47 0,-130.07 -105.84,-235.91 -237.18,-235.91l0 0z"/>
   </g>
   <path id="XMLID_500_" class="fil3" d="M3022.24 103.29c80.33,0 119.86,30.61 119.86,93.09 0,31.88 -10.2,56.11 -31.88,73.96 -20.4,17.86 -49.73,26.78 -85.44,26.78 -12.75,0 -22.95,0 -29.33,0l0 81.62c-7.65,1.27 -17.85,2.55 -30.6,2.55 -12.75,0 -22.95,-1.28 -31.88,-2.55l0 -266.52c29.33,-6.38 58.66,-8.93 89.27,-8.93zm3.82 139c17.86,0 31.88,-3.83 40.81,-12.75 8.93,-7.65 12.75,-19.13 12.75,-33.16 0,-12.75 -5.1,-22.95 -14.03,-29.33 -8.92,-7.65 -22.95,-11.48 -40.8,-11.48 -10.21,0 -19.13,0 -29.33,1.28l0 84.16c7.65,1.28 16.57,1.28 30.6,1.28z"/>
   <path id="XMLID_1032_" class="fil4" d="M915.6 1295.61c-1.28,-1.28 -1.28,-2.55 -1.28,-3.83l0 -135.17c0,-1.27 0,-3.82 1.28,-3.82 1.28,-1.28 2.55,-1.28 3.83,-1.28l54.83 0c14.02,0 25.5,3.83 34.43,12.75 8.93,7.65 12.75,19.13 12.75,34.43 0,14.03 -3.83,25.51 -12.75,33.16 -8.93,7.65 -20.41,12.75 -34.43,12.75l-39.53 0 0 47.18c0,1.28 0,3.83 -1.28,3.83 -1.28,1.28 -2.55,1.28 -3.83,1.28l-8.92 -0.01c-2.55,0 -3.83,0 -5.1,-1.27zm56.11 -70.14c8.92,0 15.3,-2.55 20.4,-7.65 5.1,-5.1 7.65,-11.48 7.65,-20.4 0,-8.93 -2.55,-15.3 -7.65,-20.41 -5.1,-5.1 -11.48,-7.65 -20.4,-7.65l-38.26 0 0 56.11 38.26 0z"/>
   <path id="XMLID_1035_" class="fil4" d="M1048.22 1295.61c-1.28,-1.28 -1.28,-2.55 -1.28,-3.83l0 -135.17c0,-1.27 0,-3.82 1.28,-3.82 1.28,-1.28 2.55,-1.28 3.83,-1.28l57.38 0c14.03,0 24.23,3.83 31.88,11.48 7.65,7.65 11.48,17.85 11.48,31.88 0,11.48 -2.55,20.4 -7.65,26.78 -5.1,6.38 -12.76,11.48 -21.68,14.03 2.55,1.27 3.82,2.55 5.1,5.1 1.27,1.27 2.55,3.82 5.1,7.65l22.95 43.36c0,1.27 1.28,1.27 1.28,2.55 0,1.27 -1.28,2.55 -3.83,2.55l-8.92 -0.01c-3.83,0 -6.38,0 -7.66,-1.27 -1.27,-1.28 -2.55,-1.28 -3.82,-3.83l-19.13 -36.98c-2.55,-6.38 -6.38,-10.2 -10.2,-12.75 -3.83,-2.55 -8.93,-3.83 -16.58,-3.83l-21.68 0 0 53.56c0,1.28 0,3.83 -1.27,3.83 -1.28,1.28 -2.55,1.28 -3.83,1.28l-8.93 -0.01c-2.55,0 -3.82,0 -3.82,-1.27zm58.66 -75.24c7.65,0 14.03,-2.55 19.13,-6.38 5.1,-3.82 6.37,-10.2 6.37,-17.85 0,-7.65 -2.55,-14.03 -6.37,-19.13 -3.83,-3.82 -10.2,-6.37 -19.13,-6.37l-40.81 0 0 49.73 40.81 0z"/>
   <path id="XMLID_1038_" class="fil4" d="M1193.59 1285.41c-10.2,-8.93 -15.3,-21.68 -15.3,-38.26l0 -45.91c0,-16.57 5.1,-29.33 15.3,-38.25 10.2,-8.93 24.23,-14.03 42.09,-14.03 17.85,0 31.88,5.1 42.08,14.03 10.2,8.93 15.3,21.68 15.3,38.25l0 45.91c0,16.58 -5.1,29.33 -15.3,38.26 -10.2,8.92 -24.23,14.03 -42.08,14.03 -17.86,0 -31.89,-3.83 -42.09,-14.03zm14.03 -12.75c6.38,6.37 15.3,8.92 28.05,8.92 11.48,0 21.68,-2.55 28.06,-8.92 6.37,-6.38 10.2,-14.03 10.2,-25.51l0 -45.91c0,-11.47 -3.83,-19.12 -10.2,-25.5 -6.38,-6.38 -15.3,-8.93 -28.06,-8.93 -11.47,0 -21.68,2.55 -28.05,8.93 -6.38,6.38 -10.2,14.03 -10.2,25.5l0 45.91c1.27,11.48 3.82,19.13 10.2,25.51z"/>
   <path id="XMLID_1041_" class="fil4" d="M1323.66 1295.61c-1.27,-1.28 -1.27,-2.55 -1.27,-3.83l0 -135.17c0,-1.27 0,-3.82 1.27,-3.82 1.28,-1.28 2.55,-1.28 3.83,-1.28l81.61 0c1.28,0 3.83,0 3.83,1.28 1.27,1.27 1.27,2.55 1.27,3.82l0 7.65c0,2.55 0,3.83 -1.27,3.83 -1.28,1.28 -2.55,1.28 -3.83,1.28l-67.58 -0.01 0 45.91 57.38 0c1.28,0 3.83,0 3.83,1.28 1.27,1.27 1.27,2.55 1.27,3.82l0 7.65c0,1.28 0,3.83 -1.27,3.83 -1.28,1.28 -2.55,1.28 -3.83,1.28l-57.38 -0.01 0 57.39c0,1.27 0,3.82 -1.28,3.82 -1.28,1.28 -2.55,1.28 -3.83,1.28l-8.92 0c-1.28,1.27 -2.55,1.27 -3.83,0z"/>
   <path id="XMLID_1043_" class="fil4" d="M1442.26 1295.61c-1.28,-1.28 -1.28,-2.55 -1.28,-3.83l0 -135.17c0,-1.27 0,-3.82 1.28,-3.82 1.27,-1.28 2.55,-1.28 3.82,-1.28l8.93 0c1.28,0 3.83,0 3.83,1.28 1.27,1.27 1.27,2.55 1.27,3.82l0 133.9c0,1.28 0,3.83 -1.27,3.83 -1.28,1.27 -2.55,1.27 -3.83,1.27l-8.93 0c-1.27,1.27 -2.55,1.27 -3.82,0z"/>
   <path id="XMLID_1045_" class="fil4" d="M1508.57 1291.78c-8.93,-5.1 -15.3,-14.03 -20.41,-26.78 0,-1.27 0,-2.55 0,-2.55 0,-1.27 0,-1.27 1.28,-2.55 1.28,-1.27 1.28,-1.27 2.55,-1.27l8.93 -2.55c1.28,0 2.55,0 2.55,0 1.28,0 1.28,0 2.55,1.27 1.27,1.28 1.28,1.28 1.28,2.55 6.37,15.3 19.13,22.96 36.98,22.96 24.23,0 36.98,-8.93 36.98,-25.51 0,-5.1 -1.28,-10.2 -5.1,-12.75 -3.83,-2.55 -7.65,-5.1 -12.75,-6.38 -5.1,-1.27 -11.48,-2.55 -19.13,-3.82 -11.48,-1.28 -20.41,-2.55 -28.06,-5.1 -7.65,-2.56 -14.02,-6.38 -19.13,-11.48 -5.1,-5.1 -7.65,-14.03 -7.65,-24.23 0,-8.93 2.55,-16.58 6.38,-22.96 3.83,-6.37 10.2,-11.47 19.13,-15.3 7.65,-3.82 17.85,-5.1 29.33,-5.1 14.03,0 25.5,2.55 33.15,7.65 7.66,5.1 15.31,12.75 20.41,24.23 1.27,1.28 1.27,2.55 1.27,2.55 0,1.28 -1.27,2.55 -3.82,3.83l-8.93 3.83c-1.28,0 -2.55,1.27 -2.55,1.27 -1.28,0 -2.55,-1.27 -3.83,-3.83 -3.82,-7.65 -7.65,-12.75 -14.02,-15.3 -6.38,-2.55 -12.76,-5.1 -21.68,-5.1 -11.48,0 -19.13,2.55 -25.51,6.38 -6.37,3.83 -8.92,10.2 -8.92,17.85 0,5.1 1.27,10.2 5.1,12.75 3.82,2.55 7.65,5.1 12.75,6.38 5.1,1.28 12.75,2.55 20.4,3.83 10.2,1.27 19.13,2.55 25.51,5.1 6.37,2.55 12.75,6.37 17.85,11.48 5.1,5.1 7.65,14.02 7.65,24.22 0,14.03 -5.1,24.23 -15.3,31.89 -10.2,7.65 -24.23,11.47 -42.09,11.47 -12.75,-1.28 -24.23,-3.83 -33.15,-8.93z"/>
   <path id="XMLID_1047_" class="fil4" d="M1641.19 1291.78c-8.93,-5.1 -15.3,-14.03 -20.4,-26.78 0,-1.27 0,-2.55 0,-2.55 0,-1.27 0,-1.27 1.27,-2.55 1.28,-1.27 1.28,-1.27 2.55,-1.27l8.93 -2.55c1.28,0 2.55,0 2.55,0 1.28,0 1.28,0 2.55,1.27 1.28,1.28 1.28,1.28 1.28,2.55 6.37,15.3 19.13,22.96 36.98,22.96 24.23,0 36.98,-8.93 36.98,-25.51 0,-5.1 -1.28,-10.2 -5.1,-12.75 -3.83,-2.55 -7.65,-5.1 -12.75,-6.38 -5.1,-1.27 -11.48,-2.55 -19.13,-3.82 -11.48,-1.28 -20.4,-2.55 -28.06,-5.1 -7.65,-2.56 -14.02,-6.38 -19.12,-11.48 -5.11,-5.1 -7.66,-14.03 -7.66,-24.23 0,-8.93 2.55,-16.58 6.38,-22.96 3.83,-6.37 10.2,-11.47 19.13,-15.3 7.65,-3.82 17.85,-5.1 29.33,-5.1 14.03,0 25.5,2.55 33.16,7.65 7.65,5.1 15.3,12.75 20.4,24.23 1.28,1.28 1.28,2.55 1.28,2.55 0,1.28 -1.28,2.55 -3.83,3.83l-8.93 3.83c-1.27,0 -2.55,1.27 -2.55,1.27 -1.28,0 -2.55,-1.27 -3.83,-3.83 -3.82,-7.65 -7.65,-12.75 -14.02,-15.3 -6.38,-2.55 -12.76,-5.1 -21.68,-5.1 -11.48,0 -19.13,2.55 -25.51,6.38 -6.37,3.83 -8.92,10.2 -8.92,17.85 0,5.1 1.27,10.2 5.1,12.75 3.82,2.55 7.65,5.1 12.75,6.38 5.1,1.28 12.75,2.55 20.4,3.83 10.2,1.27 19.13,2.55 25.51,5.1 6.37,2.55 12.75,6.37 17.85,11.48 5.1,5.1 7.65,14.02 7.65,24.22 0,14.03 -5.1,24.23 -15.3,31.89 -10.2,7.65 -24.23,11.47 -42.09,11.47 -12.75,-1.28 -24.22,-3.83 -33.15,-8.93z"/>
   <path id="XMLID_1049_" class="fil4" d="M1762.33 1295.61c-1.27,-1.28 -1.27,-2.55 -1.27,-3.83l0 -135.17c0,-1.27 0,-3.82 1.27,-3.82 1.28,-1.28 2.56,-1.28 3.83,-1.28l8.92 0c1.28,0 3.83,0 3.83,1.28 1.28,1.27 1.28,2.55 1.28,3.82l0 133.9c0,1.28 0,3.83 -1.28,3.83 -1.27,1.27 -2.55,1.27 -3.83,1.27l-8.92 0c-2.55,1.27 -3.83,1.27 -3.83,0z"/>
   <path id="XMLID_1051_" class="fil4" d="M1826.09 1285.41c-10.2,-8.93 -15.3,-21.68 -15.3,-38.26l0 -45.91c0,-16.57 5.1,-29.33 15.3,-38.25 10.21,-8.93 24.23,-14.03 42.09,-14.03 17.85,0 31.88,5.1 42.08,14.03 10.2,8.93 15.3,21.68 15.3,38.25l0 45.91c0,16.58 -5.1,29.33 -15.3,38.26 -10.2,8.92 -24.23,14.03 -42.08,14.03 -17.86,0 -33.16,-3.83 -42.09,-14.03zm14.03 -12.75c6.38,6.37 15.3,8.92 28.06,8.92 11.47,0 21.67,-2.55 28.05,-8.92 6.38,-6.38 10.2,-14.03 10.2,-25.51l0 -45.91c0,-11.47 -3.83,-19.12 -10.2,-25.5 -6.38,-6.38 -15.3,-8.93 -28.05,-8.93 -11.48,0 -21.68,2.55 -28.06,8.93 -6.38,6.38 -10.2,14.03 -10.2,25.5l0 45.91c0,11.48 3.83,19.13 10.2,25.51z"/>
   <path id="XMLID_1054_" class="fil4" d="M1956.16 1295.61c-1.27,-1.28 -1.27,-2.55 -1.27,-3.83l0 -135.17c0,-1.27 0,-3.82 1.27,-3.82 1.28,-1.28 2.56,-1.28 3.83,-1.28l8.93 0c1.27,0 2.55,0 3.82,0 1.28,0 1.28,1.28 2.55,2.55l57.39 82.89c3.83,5.1 8.93,14.03 14.03,25.5 1.27,3.83 2.55,6.38 3.82,7.66l1.27 0c0,0 0,-2.56 -1.27,-7.66 -1.28,-12.75 -2.55,-22.95 -2.55,-30.6l0 -75.24c0,-1.27 0,-3.82 1.28,-3.82 1.27,-1.28 2.55,-1.28 3.82,-1.28l8.93 0c2.55,0 3.82,0 3.82,1.28 1.28,1.27 1.28,2.55 1.28,3.82l0 133.9c0,1.28 0,3.83 -1.28,3.83 -1.27,1.27 -2.55,1.27 -3.82,1.27l-8.93 0c-1.28,0 -2.55,0 -3.83,0 -1.27,0 -1.27,-1.28 -2.55,-2.55l-58.66 -85.44c-2.55,-5.1 -6.37,-8.93 -8.92,-15.3 -2.55,-6.38 -3.83,-7.65 -3.83,-8.93 -2.55,-5.1 -3.83,-7.65 -3.83,-7.65l-1.27 0c0,0 0,2.55 1.28,7.65 1.27,11.48 2.55,22.95 2.55,30.6l0 75.24c0,1.28 0,3.83 -1.28,3.83 -1.27,1.27 -2.55,1.27 -3.82,1.27l-7.65 0c-2.55,2.55 -3.83,2.55 -5.11,1.28z"/>
   <path id="XMLID_1056_" class="fil4" d="M2087.51 1294.33c0,-1.27 0,-1.27 0,-2.55l52.28 -135.17c1.28,-1.27 1.28,-2.55 2.55,-3.82 1.28,0 2.55,-1.28 3.83,-1.28l8.93 0c1.27,0 3.82,0 3.82,1.28 1.28,0 1.28,1.27 2.55,3.82l53.56 135.17c0,1.28 0,1.28 0,2.55 0,1.28 -1.27,2.56 -3.82,2.56l-7.66 -0.01c-3.82,0 -5.1,0 -6.37,-1.27 -1.28,0 -2.55,-1.28 -2.55,-3.83l-12.76 -33.15 -61.21 0 -12.75 33.15c-1.27,1.28 -1.27,2.55 -2.55,3.83 -1.27,1.28 -3.82,1.28 -6.37,1.28l-7.65 -0.01c-2.55,0 -3.83,-1.27 -3.83,-2.55zm87.99 -52.28l-20.4 -53.56c-1.28,-3.83 -2.55,-7.65 -2.55,-11.48 0,-3.82 -1.28,-6.37 -1.28,-7.65l-1.27 0c0,1.28 0,3.83 -1.28,7.65 0,3.83 -1.28,7.66 -2.55,11.48l-20.4 53.56 49.73 0z"/>
   <path id="XMLID_1059_" class="fil4" d="M2237.99 1295.61c-1.28,-1.28 -1.28,-2.55 -1.28,-3.83l0 -135.17c0,-1.27 0,-3.82 1.28,-3.82 1.27,-1.28 2.55,-1.28 3.82,-1.28l8.93 0c1.27,0 3.82,0 3.82,1.28 1.28,1.27 1.28,2.55 1.28,3.82l0 121.15 63.76 0c2.55,0 3.83,0 3.83,1.27 1.27,1.28 1.27,2.55 1.27,3.83l0 7.65c0,1.28 0,3.83 -1.27,3.83 -1.28,1.27 -2.56,1.27 -3.83,1.27l-79.06 0c0,1.27 -1.28,1.27 -2.55,0z"/>
   <path id="XMLID_1061_" class="fil4" d="M2348.93 1295.61c-1.28,-1.28 -1.28,-2.55 -1.28,-3.83l0 -135.17c0,-1.27 0,-3.82 1.28,-3.82 1.28,-1.28 2.55,-1.28 3.83,-1.28l8.92 0c1.28,0 3.83,0 3.83,1.28 1.27,1.27 1.27,2.55 1.27,3.82l0 133.9c0,1.28 0,3.83 -1.27,3.83 -1.28,1.27 -2.55,1.27 -3.83,1.27l-8.93 0c-1.27,1.27 -2.55,1.27 -3.82,0z"/>
   <path id="XMLID_1063_" class="fil4" d="M2394.83 1295.61c-1.27,-1.28 -1.27,-2.55 -1.27,-3.83l0 -7.65c0,-2.55 0,-3.82 1.28,-6.38l76.51 -107.11 -71.41 0c-2.55,0 -3.83,0 -3.83,-1.28 -1.28,-1.27 -1.28,-2.55 -1.28,-3.82l0 -8.93c0,-1.27 0,-3.82 1.28,-3.82 1.28,-1.28 2.55,-1.28 3.83,-1.28l90.54 0c2.55,0 3.82,0 3.82,1.28 1.28,1.27 1.28,2.55 1.28,3.82l0 7.65c0,2.55 0,3.83 -1.28,5.11l-76.51 108.39 73.96 0c1.28,0 3.83,0 3.83,1.27 1.27,1.28 1.27,2.55 1.27,3.83l0 7.65c0,1.28 0,3.83 -1.27,3.83 -1.28,1.27 -2.55,1.27 -3.83,1.27l-93.09 0c-1.27,1.27 -2.55,1.27 -3.83,0z"/>
   <path id="XMLID_1065_" class="fil4" d="M2510.88 1294.33c0,-1.27 0,-1.27 0,-2.55l52.28 -135.17c1.28,-1.27 1.28,-2.55 2.55,-3.82 1.28,0 2.55,-1.28 3.83,-1.28l8.93 0c1.27,0 3.82,0 3.82,1.28 1.28,0 1.28,1.27 2.55,3.82l53.56 135.17c0,1.28 0,1.28 0,2.55 0,1.28 -1.28,2.56 -3.83,2.56l-7.65 -0.01c-3.82,0 -5.1,0 -6.37,-1.27 -1.28,0 -2.55,-1.28 -2.55,-3.83l-12.76 -33.15 -61.21 0 -12.75 33.15c-1.27,1.28 -1.27,2.55 -2.55,3.83 -1.27,1.28 -3.82,1.28 -6.38,1.28l-7.64 -0.01c-2.56,0 -3.83,-1.27 -3.83,-2.55zm87.99 -52.28l-20.4 -53.56c-1.28,-3.83 -2.56,-7.65 -2.56,-11.48 0,-3.82 -1.27,-6.37 -1.27,-7.65l-1.28 0c0,1.28 0,3.83 -1.27,7.65 0,3.83 -1.28,7.66 -2.55,11.48l-20.41 53.56 49.74 0z"/>
   <path id="XMLID_1068_" class="fil4" d="M2661.35 1295.61c-1.27,-1.28 -1.27,-2.55 -1.27,-3.83l0 -135.17c0,-1.27 0,-3.82 1.27,-3.82 1.28,-1.28 2.55,-1.28 3.83,-1.28l8.92 0c1.28,0 2.55,0 3.83,0 1.28,0 1.28,1.28 2.55,2.55l57.39 82.89c3.82,5.1 8.92,14.03 14.03,25.5 1.27,3.83 2.55,6.38 3.82,7.66l1.27 0c0,0 0,-2.56 -1.27,-7.66 -1.28,-12.75 -2.55,-22.95 -2.55,-30.6l0 -75.24c0,-1.27 0,-3.82 1.27,-3.82 1.28,-1.28 2.55,-1.28 3.83,-1.28l8.92 0c2.56,0 3.83,0 3.83,1.28 1.28,1.27 1.28,2.55 1.28,3.82l0 133.9c0,1.28 0,3.83 -1.28,3.83 -1.27,1.27 -2.55,1.27 -3.83,1.27l-8.92 0c-1.28,0 -2.55,0 -3.83,0 -1.27,0 -1.27,-1.28 -2.55,-2.55l-58.66 -85.44c-2.55,-5.1 -6.38,-8.93 -8.93,-15.3 -2.55,-6.38 -3.82,-7.65 -3.82,-8.93 -2.55,-5.1 -3.83,-7.65 -3.83,-7.65l-1.27 0c0,0 0,2.55 1.28,7.65 1.27,11.48 2.55,22.95 2.55,30.6l0 75.24c0,1.28 0,3.83 -1.28,3.83 -1.28,1.27 -2.55,1.27 -3.83,1.27l-7.65 0c-2.55,2.55 -3.82,2.55 -5.1,1.28z"/>
   <path id="XMLID_1070_" class="fil4" d="M2839.88 1295.61c-1.27,-1.28 -1.27,-2.55 -1.27,-3.83l0 -121.14 -39.53 0c-1.28,0 -3.83,0 -3.83,-1.28 -1.28,-1.27 -1.28,-2.55 -1.28,-3.82l0 -8.93c0,-1.27 0,-3.82 1.28,-3.82 1.28,-1.28 2.55,-1.28 3.83,-1.28l98.19 0c2.55,0 3.82,0 3.82,1.28 1.28,1.27 1.28,2.55 1.28,3.82l0 7.65c0,2.55 0,3.83 -1.28,3.83 -1.27,1.28 -2.55,1.28 -3.82,1.28l-39.54 -0.01 0 121.15c0,1.27 0,3.82 -1.27,3.82 -1.28,1.28 -2.55,1.28 -3.83,1.28l-8.92 0c-1.28,1.27 -2.55,1.27 -3.83,0z"/>
   <path id="XMLID_1072_" class="fil4" d="M2926.6 1295.61c-1.28,-1.28 -1.28,-2.55 -1.28,-3.83l0 -135.17c0,-1.27 0,-3.82 1.28,-3.82 1.27,-1.28 2.55,-1.28 3.82,-1.28l81.61 0c1.28,0 3.83,0 3.83,1.28 1.28,1.27 1.28,2.55 1.28,3.82l0 7.65c0,2.55 0,3.83 -1.28,3.83 -1.28,1.28 -2.55,1.28 -3.83,1.28l-67.58 -0.01 0 43.36 58.66 0c2.55,0 3.83,0 3.83,1.28 1.27,1.27 1.27,2.55 1.27,3.82l0 7.65c0,2.55 0,3.83 -1.27,3.83 -1.28,0 -2.56,1.28 -3.83,1.28l-58.66 -0.01 0 45.91 70.13 0c2.56,0 3.83,0 3.83,1.28 1.28,1.27 1.28,2.55 1.28,3.82l0 7.65c0,1.28 0,3.83 -1.28,3.83 -1.27,1.28 -2.55,1.28 -3.83,1.28l-84.16 -0.01c-2.55,2.55 -3.82,2.55 -3.82,1.28z"/>
  </g>
 </g>
</svg>
